<svg width="651" height="300" viewBox="0 0 651 300" fill="none" xmlns="http://www.w3.org/2000/svg">
<g clip-path="url(#clip0_57_102)">
<path d="M202.804 247.011C200.461 265.373 191.843 282.172 182.65 298.355C182.346 298.906 182.033 299.449 181.712 300H86.1607C84.2282 299.498 82.3206 298.947 80.4211 298.355C69.6288 295.069 59.44 290.057 50.2508 283.513C15.0974 258.186 1.57031 210.328 7.68018 167.445C11.4793 140.802 23.1722 113.6 45.9418 99.2511C57.9639 91.6613 73.4066 89.1944 87.246 92.0149C87.6082 92.0806 87.97 92.1629 88.3398 92.2369C100.247 94.9176 110.854 101.578 116.89 112.309C127.744 131.592 121.281 155.48 115.945 176.942C110.624 198.404 107.738 224.093 123.181 239.922C118.082 224.915 123.115 207.014 135.293 196.867C144.495 189.211 157.306 186.341 168.991 188.718C170.11 188.956 171.212 189.227 172.297 189.556C174.92 190.325 177.449 191.384 179.837 192.714C198.051 202.886 205.428 226.313 202.804 247.011Z" fill="#F2F2F2"/>
<path d="M146.148 298.355C148.795 298.972 151.452 299.515 154.124 300H139.676C137.785 299.49 135.902 298.947 134.035 298.355C129.932 297.073 125.892 295.601 121.914 293.94C105.962 287.246 91.2672 277.197 80.1497 263.827C74.7125 257.349 70.2725 250.096 66.9764 242.307C63.4022 233.504 61.1308 224.227 60.2337 214.768C58.2189 195.362 60.2747 175.421 64.1148 156.36C68.0777 136.604 74.4747 117.416 83.1594 99.2346C84.2038 97.0556 85.2837 94.8902 86.3993 92.7384C86.476 92.5613 86.5922 92.404 86.7389 92.2786C86.8857 92.1532 87.0591 92.063 87.2461 92.0148C87.6257 91.9412 88.0189 92.0211 88.3398 92.2368C88.7249 92.4578 89.0104 92.8182 89.1375 93.2436C89.2645 93.669 89.2233 94.1269 89.0224 94.5228C80.068 111.985 73.2803 130.476 68.8101 149.584C64.4356 168.226 61.9522 187.731 62.799 206.899C63.6049 224.809 68.2841 242.422 78.8998 257.067C88.5947 270.438 101.982 280.98 116.792 288.159C126.165 292.644 136.012 296.064 146.148 298.355Z" fill="white"/>
<path d="M177.856 300H173.596C173.119 299.457 172.659 298.906 172.207 298.355C162.504 286.567 155.931 272.522 153.096 257.52C149.653 238.798 152.331 219.465 160.735 202.384C163.08 197.595 165.843 193.022 168.991 188.718C170.109 188.956 171.212 189.228 172.297 189.556C164.015 200.529 158.445 213.304 156.04 226.84C153.895 239.523 154.608 252.525 158.128 264.897C161.647 277.27 167.884 288.7 176.384 298.355C176.861 298.906 177.354 299.457 177.856 300Z" fill="white"/>
<path d="M568.159 300H569.283C569.409 299.857 569.531 299.711 569.65 299.566C572.211 296.455 573.945 292.748 574.694 288.789C575.603 283.848 574.896 278.745 572.678 274.237C572.059 272.973 571.33 271.766 570.499 270.631C570.204 270.694 569.913 270.765 569.626 270.852C571.812 273.748 573.282 277.119 573.917 280.692C574.483 284.039 574.295 287.47 573.366 290.736C572.437 294.001 570.791 297.018 568.548 299.566C568.422 299.711 568.292 299.857 568.159 300Z" fill="white"/>
<path d="M334.274 174.746H255.349L254.512 150.479C254.476 149.427 254.668 148.38 255.075 147.41C255.483 146.439 256.095 145.568 256.871 144.857C257.648 144.146 258.568 143.612 259.571 143.291C260.573 142.97 261.633 142.87 262.678 142.998L308.607 148.622H308.613C315.422 148.64 321.947 151.357 326.756 156.176C331.566 160.996 334.27 167.526 334.274 174.335V174.746Z" fill="#F05B5D"/>
<path d="M299.097 88.6682H244.05C243.318 88.668 242.593 88.812 241.917 89.0921C241.24 89.3721 240.626 89.7827 240.108 90.3004C239.59 90.8181 239.18 91.4327 238.9 92.1091C238.62 92.7855 238.476 93.5104 238.476 94.2425V149.289C238.476 150.021 238.62 150.746 238.9 151.423C239.18 152.099 239.59 152.714 240.108 153.231C240.626 153.749 241.24 154.16 241.917 154.44C242.593 154.72 243.318 154.864 244.05 154.864H299.097C299.829 154.864 300.554 154.72 301.23 154.44C301.907 154.16 302.521 153.749 303.039 153.231C303.557 152.714 303.967 152.099 304.247 151.423C304.527 150.746 304.671 150.021 304.671 149.289V94.2425C304.671 93.5104 304.527 92.7855 304.247 92.1091C303.967 91.4327 303.557 90.8181 303.039 90.3004C302.521 89.7827 301.907 89.3721 301.23 89.0921C300.554 88.812 299.829 88.668 299.097 88.6682Z" fill="#CCCCCC"/>
<path d="M286.7 129.83L260.71 134.891C259.168 135.19 257.571 134.864 256.269 133.987C254.967 133.109 254.066 131.751 253.764 130.21L251.766 119.951C251.468 118.409 251.793 116.812 252.671 115.51C253.548 114.208 254.907 113.307 256.448 113.005L282.438 107.944C283.979 107.645 285.576 107.971 286.878 108.848C288.18 109.726 289.081 111.084 289.383 112.625L291.381 122.884C291.679 124.426 291.354 126.023 290.476 127.325C289.599 128.627 288.241 129.528 286.7 129.83Z" fill="#3F3D56"/>
<path d="M281.5 117.71L261.665 121.572C261.303 121.643 260.927 121.566 260.62 121.36C260.314 121.153 260.102 120.833 260.031 120.471C259.96 120.108 260.037 119.732 260.243 119.425C260.45 119.119 260.77 118.907 261.133 118.836L280.967 114.974C281.33 114.903 281.706 114.98 282.012 115.186C282.319 115.393 282.531 115.713 282.601 116.075C282.672 116.438 282.596 116.814 282.389 117.121C282.182 117.427 281.863 117.639 281.5 117.71Z" fill="white"/>
<path d="M277.644 123.43L267.385 125.428C267.023 125.498 266.646 125.422 266.34 125.215C266.034 125.009 265.822 124.689 265.751 124.326C265.68 123.963 265.757 123.587 265.963 123.281C266.17 122.974 266.49 122.762 266.853 122.692L277.112 120.694C277.291 120.659 277.476 120.66 277.655 120.696C277.835 120.733 278.005 120.804 278.157 120.906C278.309 121.008 278.439 121.14 278.54 121.292C278.641 121.445 278.711 121.616 278.746 121.795C278.781 121.975 278.78 122.16 278.744 122.339C278.707 122.519 278.636 122.689 278.534 122.841C278.431 122.992 278.3 123.123 278.148 123.224C277.995 123.325 277.824 123.395 277.644 123.43Z" fill="white"/>
<path d="M304.671 94.2425V101.559H238.476V94.2425C238.476 93.5104 238.62 92.7855 238.9 92.1091C239.18 91.4327 239.59 90.8181 240.108 90.3004C240.626 89.7827 241.24 89.3721 241.917 89.0921C242.593 88.812 243.318 88.668 244.05 88.6682H299.097C299.829 88.668 300.554 88.812 301.23 89.0921C301.907 89.3721 302.521 89.7827 303.039 90.3004C303.557 90.8181 303.967 91.4327 304.247 92.1091C304.527 92.7855 304.671 93.5104 304.671 94.2425Z" fill="#B3B3B3"/>
<path d="M436.857 103.85C436.475 102.616 435.827 101.482 434.959 100.525C434.091 99.5694 433.023 98.8153 431.832 98.3163C430.641 97.8173 429.355 97.5856 428.065 97.6374C426.774 97.6892 425.511 98.0233 424.364 98.6161L348.632 71.445L345.297 90.3639L420.787 111.123C421.911 112.985 423.678 114.369 425.755 115.014C427.831 115.66 430.072 115.521 432.053 114.624C434.033 113.728 435.617 112.136 436.502 110.15C437.388 108.164 437.514 105.923 436.857 103.85Z" fill="#FFB8B8"/>
<path opacity="0.2" d="M436.857 103.85C436.475 102.616 435.827 101.482 434.959 100.525C434.091 99.5694 433.023 98.8153 431.832 98.3163C430.641 97.8173 429.355 97.5856 428.065 97.6374C426.774 97.6892 425.511 98.0233 424.364 98.6161L348.632 71.445L345.297 90.3639L420.787 111.123C421.911 112.985 423.678 114.369 425.755 115.014C427.831 115.66 430.072 115.521 432.053 114.624C434.033 113.728 435.617 112.136 436.502 110.15C437.388 108.164 437.514 105.923 436.857 103.85Z" fill="black"/>
<path d="M362.074 74.8924L354.923 93.5754C354.719 94.1069 354.404 94.5884 353.997 94.987C353.591 95.3856 353.104 95.6919 352.568 95.8851C352.033 96.0783 351.462 96.1538 350.895 96.1066C350.328 96.0593 349.777 95.8904 349.281 95.6112L331.901 85.8289C329.187 84.7722 327.003 82.6827 325.828 80.0184C324.653 77.3541 324.582 74.3324 325.631 71.6159C326.679 68.8993 328.763 66.7096 331.424 65.5266C334.085 64.3437 337.106 64.2641 339.826 65.3054L359.234 69.6098C359.789 69.7333 360.312 69.975 360.766 70.3185C361.22 70.6621 361.594 71.0994 361.864 71.6008C362.133 72.1021 362.291 72.6556 362.328 73.2236C362.364 73.7917 362.278 74.3608 362.074 74.8924Z" fill="#F05B5D"/>
<path d="M442.818 121.149L415.682 133.484L419.245 146.896C426.125 172.797 427.951 199.78 424.623 226.372L444.463 230.515L460.909 188.578L455.153 140.884L442.818 121.149Z" fill="#F05B5D"/>
<path d="M496.062 183.233C478.233 183.233 463.703 196.194 462.998 212.425H529.126C528.421 196.194 513.892 183.233 496.062 183.233Z" fill="#3F3D56"/>
<path d="M482.183 186.03C481.255 112.764 439.529 119.505 439.529 119.505C439.529 119.505 440.309 142.31 440.684 143.019C467.274 193.327 423.391 252.306 367.532 241.456C366.479 241.251 365.467 241.044 364.497 240.833C357.419 239.356 351.17 235.237 347.021 229.316C342.872 223.395 341.134 216.116 342.161 208.958C347.663 164.772 320.295 165.553 320.295 165.553H280.276L259.494 146.849C258.76 146.189 257.876 145.719 256.919 145.479C255.962 145.24 254.96 145.238 254.002 145.475C253.044 145.712 252.158 146.18 251.423 146.839C250.688 147.497 250.125 148.325 249.784 149.251L247.11 156.508C247.11 156.508 207.64 160.62 210.929 199.268H223.132C223.102 200.366 223.146 201.465 223.263 202.557L314.334 201.817C319.672 201.773 324.384 206.099 324.406 211.437C324.412 212.737 324.155 214.025 323.652 215.223C323.148 216.421 322.408 217.505 321.476 218.411C320.543 219.316 319.438 220.024 318.226 220.493C317.013 220.961 315.719 221.181 314.42 221.137L299.737 220.648C295.215 240.794 306.316 254.362 318.548 262.894C330.064 270.81 343.729 275.007 357.704 274.92H397.592C449.397 274.92 458.442 231.338 458.442 231.338C485.578 219.825 482.183 186.03 482.183 186.03Z" fill="#3F3D56"/>
<path d="M493.595 298.767C519.141 298.767 539.85 278.058 539.85 252.512C539.85 226.966 519.141 206.258 493.595 206.258C468.05 206.258 447.341 226.966 447.341 252.512C447.341 278.058 468.05 298.767 493.595 298.767Z" fill="#3F3D56"/>
<path d="M493.595 263.849C499.857 263.849 504.932 258.773 504.932 252.512C504.932 246.251 499.857 241.175 493.595 241.175C487.334 241.175 482.258 246.251 482.258 252.512C482.258 258.773 487.334 263.849 493.595 263.849Z" fill="white"/>
<path d="M260.061 298.767C289.467 298.767 313.305 274.928 313.305 245.522C313.305 216.117 289.467 192.278 260.061 192.278C230.655 192.278 206.817 216.117 206.817 245.522C206.817 274.928 230.655 298.767 260.061 298.767Z" fill="#3F3D56"/>
<path d="M260.061 258.572C267.269 258.572 273.111 252.73 273.111 245.522C273.111 238.315 267.269 232.472 260.061 232.472C252.854 232.472 247.011 238.315 247.011 245.522C247.011 252.73 252.854 258.572 260.061 258.572Z" fill="white"/>
<path d="M415.759 137.128L405.996 110.609C405.487 109.227 405.255 107.758 405.314 106.287C405.373 104.815 405.721 103.37 406.338 102.032C406.956 100.695 407.831 99.493 408.913 98.494C409.995 97.495 411.263 96.719 412.646 96.2101L440.637 85.9057C443.069 85.0102 445.653 84.6024 448.242 84.7057C450.832 84.809 453.375 85.4213 455.728 86.5077C458.081 87.594 460.197 89.1331 461.955 91.0372C463.712 92.9412 465.078 95.1728 465.974 97.6046C466.781 99.7873 467.193 102.096 467.191 104.424C467.181 107.379 466.512 110.294 465.234 112.958C463.955 115.622 462.099 117.968 459.801 119.825C458.14 121.157 456.274 122.21 454.275 122.941L415.759 137.128Z" fill="#3F3D56"/>
<path d="M466.78 104.423C466.778 107.318 466.127 110.176 464.874 112.786C463.622 115.395 461.8 117.691 459.544 119.504C456.081 118.591 452.859 116.935 450.102 114.651C447.344 112.366 445.117 109.509 443.576 106.277C442.034 103.045 441.215 99.5162 441.175 95.9356C441.135 92.3551 441.875 88.8088 443.344 85.5433C446.165 84.93 449.087 84.9561 451.896 85.6198C454.705 86.2835 457.33 87.5679 459.578 89.3787C461.825 91.1894 463.639 93.4807 464.885 96.0841C466.132 98.6875 466.779 101.537 466.78 104.423Z" fill="#F05B5D"/>
<path d="M217.918 204.613C224.276 204.613 229.431 198.354 229.431 190.634C229.431 182.913 224.276 176.655 217.918 176.655C211.56 176.655 206.406 182.913 206.406 190.634C206.406 198.354 211.56 204.613 217.918 204.613Z" fill="#F05B5D"/>
<path d="M370.095 240.117H380.176L384.973 213.97L370.093 213.971L370.095 240.117Z" fill="#FFB8B8"/>
<path d="M367.523 236.825L387.377 236.824H387.377C389.039 236.824 390.684 237.152 392.219 237.787C393.754 238.423 395.149 239.355 396.324 240.53C397.499 241.705 398.431 243.1 399.067 244.635C399.702 246.17 400.03 247.815 400.03 249.477V249.888L367.524 249.889L367.523 236.825Z" fill="#2F2E41"/>
<path d="M381.796 229.385C381.679 229.385 381.561 229.379 381.443 229.368L367.491 228.352C366.927 228.3 366.382 228.119 365.899 227.823C365.416 227.527 365.007 227.123 364.705 226.644C364.402 226.165 364.213 225.623 364.153 225.06C364.093 224.496 364.164 223.927 364.359 223.395L383.03 181.445C383.164 181.071 383.218 180.674 383.19 180.277C383.163 179.881 383.053 179.495 382.869 179.144C382.685 178.788 382.428 178.475 382.115 178.225C381.801 177.976 381.439 177.796 381.051 177.696C372.271 175.401 349.744 169.29 330.243 162.14C321.889 159.077 316.627 154.65 314.604 148.982C311.937 141.51 315.883 134.695 316.052 134.409L316.184 134.185L334.534 135.853L354.426 137.545L398.019 160.921C401.672 162.897 404.447 166.175 405.79 170.105C407.134 174.034 406.949 178.325 405.271 182.124L385.173 227.192C384.882 227.845 384.409 228.399 383.809 228.788C383.21 229.178 382.511 229.385 381.796 229.385Z" fill="#2F2E41"/>
<path d="M337.724 52.8587C348.878 52.8587 357.921 43.8163 357.921 32.6621C357.921 21.5078 348.878 12.4655 337.724 12.4655C326.57 12.4655 317.528 21.5078 317.528 32.6621C317.528 43.8163 326.57 52.8587 337.724 52.8587Z" fill="#FFB8B8"/>
<path d="M364.339 242.583H374.42L379.216 216.437L364.337 216.438L364.339 242.583Z" fill="#FFB8B8"/>
<path d="M361.767 239.292L381.62 239.291H381.621C383.283 239.291 384.928 239.618 386.463 240.254C387.998 240.89 389.393 241.822 390.568 242.997C391.743 244.172 392.675 245.567 393.311 247.102C393.946 248.637 394.274 250.282 394.274 251.943V252.355L361.768 252.356L361.767 239.292Z" fill="#2F2E41"/>
<path d="M376.04 231.852C375.923 231.852 375.805 231.846 375.686 231.835L361.735 230.819C361.171 230.767 360.626 230.586 360.143 230.29C359.66 229.993 359.251 229.59 358.948 229.111C358.646 228.632 358.457 228.09 358.397 227.527C358.337 226.963 358.407 226.393 358.602 225.861L377.274 183.912C377.408 183.538 377.462 183.14 377.434 182.744C377.406 182.348 377.297 181.962 377.113 181.61C376.929 181.255 376.672 180.942 376.358 180.692C376.045 180.443 375.682 180.263 375.294 180.163C366.515 177.868 343.988 171.757 324.487 164.607C316.133 161.544 310.871 157.116 308.848 151.449C306.181 143.976 310.126 137.162 310.296 136.876L310.428 136.652L328.778 138.32L348.67 140.012L392.263 163.388C395.916 165.363 398.69 168.642 400.034 172.571C401.378 176.501 401.193 180.792 399.515 184.59L379.417 229.659C379.126 230.312 378.652 230.866 378.053 231.255C377.454 231.645 376.755 231.852 376.04 231.852Z" fill="#2F2E41"/>
<path d="M343.953 64.311L322.573 56.9103C322.573 56.9103 309.151 67.222 315.599 92.8026C318.965 106.003 317.985 119.937 312.803 132.536C312.179 134.095 311.46 135.614 310.65 137.085C310.65 137.085 334.496 165.865 356.699 144.486L348.064 102.959C348.064 102.959 361.632 75.4121 343.953 64.311Z" fill="#F05B5D"/>
<path d="M340.232 53.5455C337.357 49.243 335.089 43.2769 338.254 39.1832C341.378 35.1423 347.539 35.7376 352.324 33.9496C358.988 31.4591 362.852 23.6302 361.647 16.619C360.442 9.60775 354.813 3.79564 348.109 1.41752C341.404 -0.960605 333.843 -0.187184 327.277 2.55137C319.194 5.92257 312.261 12.4439 309.354 20.7047C306.446 28.9656 308 38.8843 314.032 45.2337C320.498 52.041 330.647 53.8552 340.035 53.7451" fill="#2F2E41"/>
<path d="M321.445 16.844C317.823 19.7927 312.296 18.483 308.408 15.8952C304.52 13.3074 301.365 9.62246 297.158 7.5935C289.742 4.01653 280.775 6.3944 273.557 10.3565C266.339 14.3187 259.94 19.7925 252.316 22.9017C244.691 26.011 234.962 26.1647 229.189 20.2937C227.768 24.41 227.652 28.8644 228.856 33.0492C230.06 37.2339 232.526 40.9452 235.918 43.6766C239.309 46.408 243.461 48.0266 247.806 48.3115C252.151 48.5963 256.479 47.5335 260.198 45.2682C268.552 40.1795 273.166 29.5099 282.536 26.7012C287.721 25.147 293.289 26.3987 298.529 27.7546C303.77 29.1104 309.234 30.5754 314.522 29.4212C319.811 28.267 324.758 23.5145 324.085 18.1435L321.445 16.844Z" fill="#2F2E41"/>
<path d="M435.852 103.027C435.321 101.85 434.538 100.804 433.558 99.9624C432.579 99.1208 431.426 98.5041 430.183 98.1559C428.939 97.8077 427.634 97.7364 426.36 97.947C425.086 98.1576 423.874 98.6451 422.808 99.375L344.303 81.7554L343.327 100.941L420.802 112.228C422.147 113.936 424.072 115.092 426.212 115.476C428.352 115.861 430.559 115.446 432.414 114.312C434.269 113.178 435.643 111.403 436.277 109.323C436.911 107.243 436.76 105.003 435.852 103.027Z" fill="#FFB8B8"/>
<path d="M358.068 83.5179L353.276 102.94C353.14 103.493 352.886 104.01 352.532 104.455C352.178 104.901 351.732 105.265 351.224 105.523C350.717 105.781 350.16 105.926 349.591 105.949C349.023 105.972 348.455 105.873 347.929 105.657L329.474 98.0937C326.649 97.3816 324.222 95.5779 322.725 93.0783C321.229 90.5788 320.784 87.5875 321.491 84.761C322.197 81.9344 323.995 79.5034 326.492 78.0014C328.988 76.4994 331.978 76.049 334.806 76.7491L354.597 78.6261C355.164 78.68 355.712 78.8554 356.205 79.1403C356.698 79.4253 357.123 79.8131 357.453 80.2773C357.782 80.7415 358.007 81.2713 358.114 81.8305C358.22 82.3897 358.204 82.9652 358.068 83.5179V83.5179Z" fill="#F05B5D"/>
<path d="M426.783 118.271C429.962 118.271 432.539 115.694 432.539 112.515C432.539 109.336 429.962 106.759 426.783 106.759C423.604 106.759 421.027 109.336 421.027 112.515C421.027 115.694 423.604 118.271 426.783 118.271Z" fill="#F05B5D"/>
<path d="M553.433 298.657C553.432 298.775 553.362 298.889 553.237 298.973C553.112 299.057 552.942 299.104 552.765 299.104H0.667591C0.490535 299.104 0.32073 299.057 0.195532 298.973C0.0703347 298.889 0 298.775 0 298.657C0 298.538 0.0703347 298.424 0.195532 298.34C0.32073 298.256 0.490535 298.209 0.667591 298.209H552.765C552.942 298.209 553.112 298.257 553.237 298.341C553.362 298.424 553.432 298.538 553.433 298.657Z" fill="#3F3D56"/>
</g>
<defs>
<clipPath id="clip0_57_102">
<rect width="681.689" height="300" fill="white"/>
</clipPath>
</defs>
</svg>
