<svg width="450" height="378" viewBox="0 0 450 378" fill="none" xmlns="http://www.w3.org/2000/svg">
<g clip-path="url(#clip0_57_29)">
<path d="M292.936 373.195L208.638 221.209C208.614 220.837 208.499 220.477 208.303 220.16C208.107 219.843 207.835 219.579 207.513 219.392C207.143 219.181 206.721 219.079 206.295 219.098C206.282 219.097 206.268 219.098 206.254 219.097C206.24 219.098 206.227 219.097 206.213 219.098C205.636 219.071 205.072 219.268 204.637 219.648C204.202 220.028 203.931 220.561 203.88 221.136L114.537 373.195C114.388 373.453 114.291 373.737 114.252 374.032C114.213 374.327 114.232 374.627 114.309 374.915C114.386 375.202 114.519 375.472 114.7 375.708C114.882 375.944 115.108 376.143 115.365 376.291C115.623 376.44 115.908 376.537 116.203 376.576C116.498 376.614 116.798 376.595 117.085 376.518C117.373 376.44 117.642 376.307 117.878 376.126C118.114 375.945 118.312 375.719 118.461 375.461L206.194 226.144L289.012 375.461C289.16 375.719 289.359 375.945 289.595 376.126C289.831 376.307 290.1 376.44 290.388 376.518C290.675 376.595 290.975 376.614 291.27 376.576C291.565 376.537 291.85 376.44 292.108 376.291C292.365 376.143 292.591 375.944 292.772 375.708C292.954 375.472 293.087 375.202 293.163 374.915C293.24 374.627 293.26 374.327 293.221 374.032C293.182 373.737 293.085 373.453 292.936 373.195Z" fill="#3F3D56"/>
<path d="M192.286 347.118L201.814 344.932L197.916 307.14L183.854 310.366L192.286 347.118Z" fill="#FFB6B6"/>
<path d="M199.653 328.862L186.093 331.972L181.757 323.499L181.511 323.199C179.588 320.838 178.521 317.896 178.483 314.851L167.212 285.038L166.291 284.6C165.578 284.261 164.945 283.774 164.436 283.171C163.926 282.568 163.551 281.863 163.335 281.103C163.12 280.344 163.069 279.547 163.186 278.767C163.303 277.986 163.585 277.239 164.013 276.576L162.82 273.42L129.153 273.482L129.119 273.472L87.7758 261.875L92.1169 235.998L103.747 243.313C107.579 243.065 173.225 239.034 179.289 253.746C184.689 266.846 192.472 289.228 198.049 305.697C198.327 306.437 198.673 307.149 199.082 307.825C199.949 309.161 200.459 310.698 200.561 312.289C200.626 312.98 200.758 313.664 200.955 314.331C203.273 321.261 199.741 328.679 199.705 328.753L199.653 328.862Z" fill="#2F2E41"/>
<path d="M189.067 343.959L192.165 343.248L203.131 335.555L210.742 338.985L210.743 338.985C214.406 338.145 218.253 338.794 221.438 340.791C224.623 342.787 226.884 345.966 227.725 349.629L227.828 350.078L192.339 358.221L189.067 343.959Z" fill="#2F2E41"/>
<path d="M48.3823 344.807C49.3511 334.263 55.5276 323.706 65.4341 319.966C61.8312 330.903 62.213 342.762 66.5119 353.444C68.1847 357.558 70.4737 361.96 69.1607 366.202C68.3438 368.842 66.2044 370.91 63.7813 372.238C61.3581 373.566 58.6434 374.249 55.9625 374.92L55.4454 375.376C50.849 365.837 47.4136 355.352 48.3823 344.807Z" fill="#F0F0F0"/>
<path d="M65.5399 320.161C59.9168 326.884 56.555 335.208 55.9321 343.951C55.7646 345.831 55.8944 347.725 56.3168 349.564C56.7861 351.343 57.7231 352.963 59.0304 354.257C60.2251 355.487 61.5897 356.608 62.4644 358.108C62.9007 358.882 63.1685 359.74 63.25 360.625C63.3316 361.51 63.2251 362.402 62.9376 363.243C62.2758 365.358 60.8937 367.108 59.4827 368.773C57.916 370.621 56.2595 372.516 55.6455 374.92C55.5711 375.211 55.1236 375.079 55.1979 374.788C56.2661 370.606 60.2123 368.124 62.0105 364.33C62.8495 362.56 63.1602 360.527 62.2622 358.716C61.4769 357.132 60.0707 355.975 58.8502 354.739C57.5564 353.496 56.5868 351.955 56.0259 350.25C55.5113 348.438 55.3087 346.552 55.4269 344.672C55.6254 340.436 56.4888 336.258 57.9853 332.289C59.6683 327.751 62.1151 323.535 65.22 319.821C65.4122 319.592 65.7309 319.933 65.5398 320.161L65.5399 320.161Z" fill="white"/>
<path d="M55.967 341.124C54.5144 340.82 53.217 340.01 52.3065 338.838C51.3961 337.667 50.9318 336.209 50.9967 334.727C50.9999 334.666 51.0264 334.609 51.0707 334.568C51.115 334.527 51.1736 334.504 51.2341 334.505C51.2946 334.507 51.3523 334.531 51.3951 334.574C51.4379 334.617 51.4624 334.674 51.4634 334.735C51.4005 336.115 51.8331 337.473 52.6831 338.562C53.5332 339.652 54.7447 340.402 56.099 340.676C56.3932 340.736 56.2595 341.184 55.967 341.124H55.967Z" fill="white"/>
<path d="M58.3425 353.712C60.8958 352.074 62.738 349.534 63.5016 346.598C63.577 346.307 64.0246 346.44 63.9493 346.73C63.1489 349.784 61.2265 352.423 58.5657 354.122C58.3119 354.284 58.0901 353.873 58.3425 353.712H58.3425Z" fill="white"/>
<path d="M60.1152 328.179C60.6528 328.414 61.2402 328.511 61.8247 328.463C62.4092 328.414 62.9725 328.221 63.4641 327.901C63.7156 327.736 63.9372 328.147 63.6872 328.311C63.1425 328.662 62.5202 328.875 61.8745 328.93C61.2288 328.985 60.5795 328.881 59.9832 328.627C59.925 328.608 59.8763 328.567 59.847 328.513C59.8177 328.459 59.81 328.396 59.8254 328.337C59.8432 328.278 59.8836 328.228 59.9379 328.199C59.9921 328.169 60.0559 328.162 60.1152 328.179H60.1152Z" fill="white"/>
<path d="M96.5677 337.744C96.4136 337.852 96.2594 337.959 96.1052 338.07C94.0403 339.525 92.097 341.146 90.2945 342.915C90.153 343.05 90.0116 343.188 89.8742 343.327C85.577 347.636 82.1173 352.706 79.6709 358.279C78.6995 360.497 77.8982 362.786 77.2741 365.126C76.4123 368.358 75.7351 371.93 73.9098 374.61C73.7225 374.891 73.5179 375.161 73.2973 375.417L56.0423 375.972C56.0025 375.953 55.9626 375.939 55.9225 375.92L55.2346 375.974C55.2584 375.851 55.2857 375.724 55.3094 375.601C55.3229 375.53 55.3402 375.458 55.3537 375.387C55.3639 375.339 55.3743 375.292 55.3808 375.248C55.3842 375.232 55.3877 375.216 55.3912 375.204C55.3977 375.161 55.4083 375.121 55.4149 375.081C55.5655 374.371 55.7213 373.661 55.8824 372.95C55.8822 372.946 55.8822 372.946 55.886 372.942C57.0615 367.516 58.8766 362.248 61.2932 357.249C61.3673 357.101 61.4411 356.949 61.5231 356.801C62.6454 354.586 63.9467 352.467 65.4142 350.465C66.2213 349.371 67.0832 348.319 67.9967 347.312C70.3619 344.716 73.1209 342.507 76.1725 340.768C82.2562 337.302 89.3808 335.819 96.0588 337.603C96.2296 337.649 96.3968 337.695 96.5677 337.744Z" fill="#F0F0F0"/>
<path d="M96.536 337.964C87.9985 339.947 80.3027 344.569 74.5418 351.174C73.2764 352.574 72.2395 354.165 71.4694 355.888C70.7734 357.59 70.546 359.448 70.8109 361.268C71.0238 362.97 71.4386 364.687 71.2341 366.411C71.1162 367.292 70.8135 368.138 70.3458 368.894C69.878 369.65 69.2557 370.298 68.5198 370.796C66.7185 372.086 64.5611 372.652 62.4322 373.131C60.0684 373.664 57.6048 374.18 55.6675 375.729C55.4328 375.917 55.1552 375.541 55.3896 375.354C58.7602 372.658 63.4057 373.052 67.1252 371.106C68.8607 370.198 70.3332 368.761 70.7065 366.775C71.033 365.037 70.6068 363.267 70.3763 361.545C70.0919 359.774 70.2457 357.959 70.8241 356.261C71.504 354.504 72.4779 352.876 73.704 351.446C76.413 348.184 79.6182 345.367 83.2022 343.1C87.2782 340.49 91.7706 338.596 96.4852 337.5C96.7771 337.433 96.8259 337.897 96.536 337.964V337.964Z" fill="white"/>
<path d="M76.2716 348.938C75.2945 347.821 74.7464 346.393 74.725 344.91C74.7036 343.426 75.2104 341.983 76.1548 340.838C76.3467 340.607 76.7146 340.894 76.5225 341.126C75.6411 342.19 75.1691 343.534 75.1919 344.916C75.2146 346.298 75.7305 347.626 76.6465 348.66C76.8453 348.886 76.4692 349.162 76.2716 348.938V348.938Z" fill="white"/>
<path d="M70.5893 360.42C73.6142 360.649 76.6144 359.73 78.9918 357.846C79.2272 357.659 79.5048 358.034 79.2697 358.22C76.7921 360.177 73.668 361.127 70.5207 360.881C70.2207 360.858 70.2909 360.396 70.5893 360.42V360.42Z" fill="white"/>
<path d="M87.3773 341.1C87.6653 341.611 88.0757 342.043 88.5716 342.356C89.0675 342.669 89.6335 342.854 90.2186 342.895C90.5187 342.914 90.4482 343.376 90.15 343.356C89.5037 343.309 88.879 343.103 88.3303 342.759C87.7816 342.414 87.3257 341.94 87.0024 341.378C86.9675 341.328 86.9531 341.266 86.9621 341.205C86.9711 341.145 87.0029 341.09 87.0509 341.052C87.1007 341.015 87.163 341 87.2241 341.009C87.2852 341.018 87.3403 341.051 87.3773 341.1H87.3773Z" fill="white"/>
<path d="M330.69 344.807C329.721 334.263 323.544 323.706 313.638 319.966C317.241 330.903 316.859 342.762 312.56 353.444C310.887 357.558 308.598 361.96 309.911 366.202C310.728 368.842 312.868 370.91 315.291 372.238C317.714 373.566 320.429 374.249 323.109 374.92L323.627 375.376C328.223 365.837 331.658 355.352 330.69 344.807Z" fill="#F0F0F0"/>
<path d="M313.532 320.161C319.155 326.884 322.517 335.208 323.14 343.951C323.307 345.831 323.178 347.725 322.755 349.564C322.286 351.343 321.349 352.963 320.042 354.257C318.847 355.487 317.482 356.608 316.608 358.108C316.171 358.882 315.904 359.74 315.822 360.625C315.74 361.51 315.847 362.402 316.134 363.243C316.796 365.358 318.178 367.108 319.589 368.773C321.156 370.621 322.813 372.516 323.427 374.92C323.501 375.211 323.948 375.079 323.874 374.788C322.806 370.606 318.86 368.124 317.062 364.33C316.222 362.56 315.912 360.527 316.81 358.716C317.595 357.132 319.001 355.975 320.222 354.739C321.516 353.496 322.485 351.955 323.046 350.25C323.561 348.438 323.763 346.552 323.645 344.672C323.447 340.436 322.583 336.258 321.087 332.289C319.404 327.751 316.957 323.535 313.852 319.821C313.66 319.592 313.341 319.933 313.532 320.161L313.532 320.161Z" fill="white"/>
<path d="M323.105 341.124C324.558 340.82 325.855 340.01 326.765 338.838C327.676 337.667 328.14 336.209 328.075 334.727C328.072 334.666 328.046 334.609 328.001 334.568C327.957 334.527 327.898 334.504 327.838 334.505C327.777 334.506 327.72 334.531 327.677 334.574C327.634 334.617 327.61 334.674 327.609 334.735C327.672 336.115 327.239 337.473 326.389 338.562C325.539 339.652 324.327 340.402 322.973 340.676C322.679 340.736 322.812 341.184 323.105 341.124Z" fill="white"/>
<path d="M320.73 353.712C318.176 352.074 316.334 349.534 315.57 346.598C315.495 346.307 315.047 346.44 315.123 346.73C315.923 349.784 317.846 352.423 320.506 354.122C320.76 354.284 320.982 353.873 320.729 353.712H320.73Z" fill="white"/>
<path d="M318.957 328.179C318.419 328.414 317.832 328.511 317.247 328.463C316.663 328.414 316.099 328.221 315.608 327.901C315.356 327.736 315.135 328.147 315.385 328.311C315.929 328.662 316.552 328.875 317.197 328.93C317.843 328.985 318.493 328.881 319.089 328.627C319.147 328.608 319.196 328.567 319.225 328.513C319.254 328.459 319.262 328.396 319.247 328.337C319.229 328.278 319.188 328.228 319.134 328.199C319.08 328.169 319.016 328.162 318.957 328.179H318.957Z" fill="white"/>
<path d="M282.504 337.744C282.658 337.852 282.813 337.959 282.967 338.07C285.032 339.525 286.975 341.146 288.777 342.915C288.919 343.05 289.06 343.188 289.198 343.327C293.495 347.636 296.955 352.706 299.401 358.279C300.373 360.497 301.174 362.786 301.798 365.126C302.66 368.358 303.337 371.93 305.162 374.61C305.35 374.891 305.554 375.161 305.775 375.417L323.03 375.972C323.07 375.953 323.109 375.939 323.149 375.92L323.837 375.974C323.814 375.851 323.786 375.724 323.763 375.601C323.749 375.53 323.732 375.458 323.718 375.387C323.708 375.339 323.698 375.292 323.691 375.248C323.688 375.232 323.684 375.216 323.681 375.204C323.674 375.161 323.664 375.121 323.657 375.081C323.507 374.371 323.351 373.661 323.19 372.95C323.19 372.946 323.19 372.946 323.186 372.942C322.011 367.516 320.195 362.248 317.779 357.25C317.705 357.101 317.631 356.949 317.549 356.801C316.427 354.586 315.125 352.467 313.658 350.465C312.851 349.371 311.989 348.319 311.075 347.312C308.71 344.716 305.951 342.507 302.9 340.768C296.816 337.302 289.691 335.819 283.013 337.603C282.842 337.649 282.675 337.695 282.504 337.744Z" fill="#F0F0F0"/>
<path d="M282.536 337.964C291.074 339.947 298.769 344.569 304.53 351.174C305.796 352.574 306.833 354.165 307.603 355.888C308.299 357.59 308.526 359.448 308.261 361.268C308.048 362.97 307.633 364.687 307.838 366.411C307.956 367.292 308.258 368.138 308.726 368.894C309.194 369.65 309.816 370.298 310.552 370.796C312.354 372.086 314.511 372.651 316.64 373.131C319.004 373.664 321.467 374.18 323.404 375.729C323.639 375.917 323.917 375.541 323.682 375.354C320.312 372.658 315.666 373.052 311.947 371.106C310.211 370.198 308.739 368.761 308.365 366.775C308.039 365.037 308.465 363.267 308.696 361.545C308.98 359.774 308.826 357.959 308.248 356.261C307.568 354.504 306.594 352.876 305.368 351.446C302.659 348.184 299.454 345.367 295.87 343.1C291.794 340.49 287.301 338.596 282.587 337.5C282.295 337.433 282.246 337.897 282.536 337.964V337.964Z" fill="white"/>
<path d="M302.8 348.938C303.777 347.821 304.326 346.393 304.347 344.91C304.368 343.426 303.862 341.983 302.917 340.838C302.725 340.607 302.357 340.894 302.55 341.126C303.431 342.19 303.903 343.534 303.88 344.916C303.857 346.298 303.341 347.626 302.425 348.66C302.227 348.886 302.603 349.162 302.8 348.938V348.938Z" fill="white"/>
<path d="M308.483 360.42C305.458 360.649 302.458 359.73 300.08 357.846C299.845 357.659 299.567 358.034 299.802 358.22C302.28 360.177 305.404 361.127 308.551 360.881C308.851 360.858 308.781 360.396 308.483 360.42V360.42Z" fill="white"/>
<path d="M291.695 341.1C291.407 341.611 290.996 342.043 290.5 342.356C290.005 342.669 289.439 342.854 288.853 342.895C288.553 342.914 288.624 343.376 288.922 343.356C289.568 343.309 290.193 343.103 290.742 342.759C291.29 342.414 291.746 341.94 292.07 341.378C292.105 341.328 292.119 341.266 292.11 341.205C292.101 341.145 292.069 341.09 292.021 341.052C291.971 341.015 291.909 341 291.848 341.009C291.787 341.018 291.732 341.051 291.695 341.1H291.695Z" fill="white"/>
<path d="M450 376.816C450 376.975 449.936 377.127 449.824 377.239C449.712 377.352 449.56 377.415 449.401 377.415H0.599453C0.440533 377.415 0.28812 377.352 0.175747 377.24C0.0633739 377.127 0.000244141 376.975 0.000244141 376.816C0.000244141 376.657 0.0633739 376.505 0.175747 376.392C0.28812 376.28 0.440533 376.217 0.599453 376.217H449.401C449.56 376.217 449.712 376.28 449.824 376.393C449.936 376.505 450 376.657 450 376.816Z" fill="#3F3D56"/>
<path d="M289.086 145.018C290.337 145.018 291.352 144.004 291.352 142.752C291.352 141.501 290.337 140.487 289.086 140.487C287.834 140.487 286.82 141.501 286.82 142.752C286.82 144.004 287.834 145.018 289.086 145.018Z" fill="#3F3D56"/>
<path d="M260.712 160.206L291.26 141.014C291.536 140.84 291.845 140.725 292.167 140.674C292.49 140.623 292.819 140.637 293.136 140.717C293.452 140.797 293.749 140.94 294.009 141.138C294.268 141.336 294.485 141.584 294.646 141.868C294.807 142.152 294.909 142.466 294.945 142.79C294.981 143.114 294.952 143.443 294.857 143.755C294.763 144.068 294.607 144.358 294.397 144.608C294.188 144.859 293.93 145.064 293.639 145.212L261.479 161.559C261.3 161.65 261.094 161.668 260.902 161.611C260.71 161.553 260.548 161.423 260.449 161.249C260.35 161.075 260.323 160.869 260.372 160.675C260.421 160.481 260.543 160.313 260.712 160.206V160.206Z" fill="#E4E4E4"/>
<path d="M199.427 201.531C199.186 201.173 199.06 200.751 199.067 200.319C199.073 199.888 199.211 199.469 199.461 199.119C199.979 198.427 200.667 197.881 201.459 197.535C203.093 196.703 204.854 196.147 206.67 195.888C208.049 195.693 209.555 195.63 210.626 194.738C211.689 193.851 212.282 192.193 213.66 192.054C214.991 191.921 216.015 193.378 217.351 193.469C218.997 193.58 220.075 191.654 221.677 191.259C222.749 190.994 223.852 191.461 224.858 191.917L230.894 194.655L233.987 196.059C235.068 196.549 236.287 197.21 236.491 198.379C236.771 199.985 234.985 201.118 233.457 201.688C222.551 205.714 210.565 205.715 199.658 201.693" fill="#F05B5D"/>
<path d="M208.52 231.123C252.32 231.123 287.827 226.05 287.827 219.793C287.827 213.536 252.32 208.464 208.52 208.464C164.72 208.464 129.213 213.536 129.213 219.793C129.213 226.05 164.72 231.123 208.52 231.123Z" fill="#3F3D56"/>
<path d="M369.4 290.037H315.018C312.515 290.037 310.486 292.066 310.486 294.568C310.486 297.071 312.515 299.1 315.018 299.1H369.4C371.903 299.1 373.932 297.071 373.932 294.568C373.932 292.066 371.903 290.037 369.4 290.037Z" fill="#3F3D56"/>
<path d="M395.755 209.239L377.794 294.563L382.472 316.402L391.304 357.616V376.141C391.304 376.167 391.303 376.192 391.299 376.217C391.295 376.626 391.22 377.032 391.077 377.415H383.977C383.834 377.032 383.759 376.626 383.755 376.217C383.751 376.192 383.75 376.167 383.751 376.141V358.412L375.734 321.004L374.113 313.451L370.976 298.813L370.069 294.573V294.568L370.966 290.319L371.656 287.041L388.363 207.688C388.464 207.203 388.661 206.742 388.94 206.332C389.22 205.922 389.578 205.571 389.993 205.3C390.408 205.028 390.873 204.841 391.361 204.749C391.848 204.657 392.349 204.662 392.835 204.764C393.321 204.866 393.781 205.063 394.191 205.343C394.601 205.623 394.951 205.981 395.222 206.397C395.493 206.812 395.68 207.277 395.771 207.765C395.863 208.253 395.857 208.754 395.755 209.239L395.755 209.239Z" fill="#3F3D56"/>
<path d="M318.794 294.568V376.141C318.795 376.167 318.794 376.192 318.789 376.217C318.786 376.626 318.711 377.032 318.568 377.415H311.468C311.324 377.032 311.249 376.626 311.246 376.217C311.242 376.192 311.241 376.167 311.241 376.141V294.568C311.241 293.567 311.639 292.606 312.347 291.898C313.056 291.19 314.016 290.792 315.018 290.792C316.019 290.792 316.98 291.19 317.688 291.898C318.396 292.606 318.794 293.567 318.794 294.568Z" fill="#3F3D56"/>
<path d="M324.081 280.973H360.336C363.942 280.973 367.4 282.405 369.95 284.955C372.499 287.505 373.932 290.963 373.932 294.568H310.486C310.486 290.963 311.918 287.505 314.468 284.955C317.018 282.405 320.476 280.973 324.081 280.973Z" fill="#3F3D56"/>
<path d="M378.463 321.004H315.018C314.016 321.004 313.056 320.606 312.347 319.898C311.639 319.19 311.241 318.229 311.241 317.228C311.241 316.226 311.639 315.265 312.347 314.557C313.056 313.849 314.016 313.451 315.018 313.451H378.463C379.465 313.451 380.426 313.849 381.134 314.557C381.842 315.265 382.24 316.226 382.24 317.228C382.24 318.229 381.842 319.19 381.134 319.898C380.426 320.606 379.465 321.004 378.463 321.004Z" fill="#3F3D56"/>
<path d="M83.3456 299.238H147.34C149.843 299.238 151.872 297.209 151.872 294.706V293.332C151.872 290.83 149.843 288.801 147.34 288.801H83.3456C80.8427 288.801 78.8138 290.83 78.8138 293.332V294.706C78.8138 297.209 80.8427 299.238 83.3456 299.238Z" fill="#3F3D56"/>
<path d="M82.6865 294.08L81.5282 298.854L77.2784 316.336L75.4457 323.889L66.9357 358.925V374.127C66.938 374.871 66.717 375.599 66.3014 376.217C65.9746 376.716 65.5303 377.128 65.0074 377.415H61.3113C60.7884 377.128 60.344 376.716 60.0173 376.217C59.6016 375.599 59.3805 374.871 59.3827 374.127V358.019L68.8392 319.096L74.9421 293.959L54.2468 195.644C54.1443 195.159 54.1386 194.658 54.2298 194.17C54.321 193.683 54.5074 193.218 54.7783 192.803C55.0492 192.387 55.3994 192.029 55.8087 191.749C56.218 191.469 56.6786 191.273 57.1639 191.171C57.6493 191.069 58.15 191.064 58.6373 191.156C59.1247 191.247 59.5893 191.434 60.0044 191.706C60.4195 191.977 60.777 192.327 61.0566 192.737C61.3361 193.147 61.5322 193.607 61.6336 194.093L80.763 284.946L81.6442 289.135L82.6712 294.02L82.6865 294.08Z" fill="#3F3D56"/>
<path d="M150.432 294.02V374.127C150.434 374.871 150.213 375.599 149.798 376.217C149.471 376.716 149.027 377.128 148.504 377.415H144.803C144.282 377.126 143.84 376.715 143.514 376.217C143.098 375.599 142.877 374.871 142.879 374.127V294.02C142.879 293.018 143.277 292.057 143.985 291.349C144.694 290.641 145.654 290.243 146.656 290.243C147.657 290.243 148.618 290.641 149.326 291.349C150.034 292.057 150.432 293.018 150.432 294.02Z" fill="#3F3D56"/>
<path d="M151.872 294.019H78.8138V291.959C78.8138 290.174 79.1654 288.406 79.8487 286.756C80.5319 285.107 81.5334 283.608 82.7958 282.346C84.0583 281.083 85.557 280.082 87.2065 279.399C88.856 278.715 90.6239 278.364 92.4093 278.364H138.277C141.883 278.364 145.341 279.796 147.89 282.346C150.44 284.895 151.872 288.353 151.872 291.959V294.019H151.872Z" fill="#3F3D56"/>
<path d="M146.654 323.888H73.5953C72.5937 323.888 71.6331 323.49 70.9249 322.782C70.2167 322.073 69.8188 321.113 69.8188 320.111C69.8188 319.11 70.2167 318.149 70.9249 317.441C71.6331 316.733 72.5937 316.335 73.5953 316.335H146.654C147.655 316.335 148.616 316.733 149.324 317.441C150.032 318.149 150.43 319.11 150.43 320.111C150.43 321.113 150.032 322.073 149.324 322.782C148.616 323.49 147.655 323.888 146.654 323.888Z" fill="#3F3D56"/>
<path d="M240.546 356.831L232.608 353.035L243.511 319.858L255.227 325.46L240.546 356.831Z" fill="#9E616A"/>
<path d="M294.338 353.826L285.803 355.932L273.437 323.279L286.034 320.171L294.338 353.826Z" fill="#9E616A"/>
<path d="M261.625 212.627C262.757 214.465 264.563 215.789 266.657 216.314C268.751 216.839 270.968 216.525 272.834 215.439C273.21 215.212 273.565 214.954 273.898 214.668L298.992 229.069L297.902 214.286L274.239 202.877C272.952 201.584 271.272 200.754 269.462 200.518C267.652 200.283 265.815 200.654 264.239 201.575C263.332 202.119 262.543 202.84 261.918 203.695C261.294 204.549 260.847 205.52 260.603 206.55C260.359 207.579 260.324 208.648 260.5 209.691C260.675 210.735 261.058 211.733 261.625 212.627Z" fill="#9E616A"/>
<path d="M288.204 223.646L292.639 226.35L312.561 238.498C313.87 239.317 315.327 239.869 316.849 240.125C318.372 240.38 319.929 240.333 321.433 239.985C322.938 239.638 324.358 238.998 325.615 238.102C326.871 237.205 327.939 236.069 328.756 234.76C330.231 232.33 330.753 229.439 330.221 226.646L321.367 182.41C321.04 180.673 320.341 179.027 319.32 177.586C318.298 176.144 316.977 174.939 315.447 174.055C313.918 173.171 312.215 172.627 310.455 172.461C308.696 172.295 306.922 172.512 305.254 173.095C302.45 174.08 300.126 176.097 298.757 178.734C297.387 181.371 297.073 184.432 297.88 187.292L307.138 218.686L292.946 212.069L288.204 223.646Z" fill="#E6E6E6"/>
<path d="M277.716 344.675L264.058 317.284L264.059 317.221L265.408 266.98C265.425 266.533 265.461 266.084 265.515 265.643C265.754 263.628 266.39 261.681 267.389 259.915C268.387 258.15 269.727 256.6 271.33 255.358C272.866 254.156 274.625 253.272 276.506 252.758C278.387 252.244 280.351 252.109 282.284 252.362L321.338 257.416L322.693 251.878L322.945 251.786L360.365 238.072L360.581 238.423C365.481 246.397 368.907 262.326 369.841 267.018L369.854 267.085C369.874 267.184 369.886 267.244 369.89 267.261C371.816 275.268 363.856 288.531 355.927 290.525C339.224 294.782 324.287 291.461 306.991 287.616C300.788 286.236 294.378 284.81 287.318 283.578L287.528 287.733C287.7 290.932 288.364 294.084 289.498 297.08C290.757 300.767 291.751 303.68 289.648 309.752L288.631 312.689C289.159 314.147 289.34 315.708 289.162 317.249C288.983 318.789 288.449 320.267 287.602 321.566L287.397 321.878L296.404 344.67L277.716 344.675Z" fill="#2F2E41"/>
<path d="M255.275 332.562L238.988 331.048L244.758 312.595C245.949 300.546 248.949 288.745 253.658 277.591L261.528 258.939C261.547 258.524 261.582 258.106 261.632 257.696C261.87 255.682 262.507 253.735 263.506 251.969C264.504 250.204 265.844 248.654 267.447 247.412C268.983 246.211 270.742 245.327 272.623 244.813C274.503 244.299 276.468 244.164 278.401 244.416L317.397 249.463L319.096 235.207L356.526 230.198L356.697 230.477C363.24 241.122 367.393 249.456 369.769 256.703C369.888 257.073 369.994 257.45 370.084 257.826C372.024 265.886 367.182 274.059 359.291 276.043C339.183 281.17 315.002 281.027 283.209 275.593L267.823 312.21C266.352 315.707 264.531 319.047 262.388 322.178L255.275 332.562Z" fill="#2F2E41"/>
<path d="M312.086 147.707C322.506 147.707 330.952 139.072 330.952 128.42C330.952 117.768 322.506 109.134 312.086 109.134C301.667 109.134 293.22 117.768 293.22 128.42C293.22 139.072 301.667 147.707 312.086 147.707Z" fill="#9E616A"/>
<path d="M317.534 250.136L314.827 240.438L314.161 235.655L310.27 235.785L302.634 218.159L299.668 213.511C299.064 212.875 298.516 212.262 298.025 211.674C294.934 208.181 292.456 204.191 290.695 199.873C289.462 196.77 288.737 193.488 288.55 190.154C287.997 180.306 292.148 169.887 301.242 158.303C301.093 157.893 300.993 157.467 300.946 157.033C300.783 155.626 301.183 154.211 302.058 153.097C302.933 151.983 304.212 151.26 305.618 151.084L314.389 150.099C315.071 150.022 315.762 150.081 316.421 150.273C317.08 150.466 317.694 150.787 318.228 151.219C318.785 151.665 319.247 152.218 319.589 152.845C319.93 153.473 320.143 154.162 320.215 154.872C320.333 155.971 320.117 157.08 319.595 158.054C324.066 158.622 328.278 160.467 331.727 163.369C335.175 166.27 337.713 170.105 339.037 174.413C344.285 184.211 348.468 194.543 351.515 205.233C352.115 207.326 351.848 209.484 351.589 211.57C351.35 213.497 351.103 215.49 351.519 217.476C351.941 219.496 352.957 221.522 354.033 223.668C355.266 226.125 356.54 228.666 356.885 231.256L356.909 231.438L317.534 250.136Z" fill="#E4E4E4"/>
<path opacity="0.2" d="M290.929 199.777C292.682 204.071 295.146 208.038 298.218 211.512C298.744 212.141 299.299 212.758 299.881 213.376L302.865 218.059C313.867 209.813 322.78 177.344 322.78 177.344L310.367 174.93L290.929 199.777Z" fill="black"/>
<path d="M283.414 149.509C284.501 151.376 284.816 153.593 284.293 155.689C283.77 157.785 282.45 159.595 280.613 160.732C280.236 160.958 279.841 161.151 279.432 161.311L280.311 190.232L267.787 182.348L268.872 156.093C268.34 154.346 268.4 152.472 269.044 150.763C269.689 149.054 270.881 147.606 272.435 146.645C273.34 146.098 274.345 145.737 275.392 145.585C276.439 145.433 277.505 145.492 278.529 145.759C279.552 146.026 280.512 146.495 281.351 147.139C282.19 147.783 282.891 148.589 283.414 149.509Z" fill="#9E616A"/>
<path d="M281.412 179.315L267.639 181.274L268.231 209.795C268.265 211.829 268.819 213.821 269.841 215.582C270.862 217.342 272.316 218.812 274.065 219.852C276.202 221.109 278.69 221.637 281.153 221.358C283.617 221.078 285.923 220.005 287.723 218.301L320.239 187.025C322.527 184.855 323.896 181.89 324.065 178.742C324.234 175.593 323.19 172.499 321.148 170.096C320.137 168.9 318.896 167.919 317.499 167.211C316.102 166.503 314.577 166.084 313.015 165.977C311.452 165.87 309.884 166.078 308.404 166.588C306.923 167.099 305.561 167.902 304.396 168.949C304.075 169.236 303.769 169.541 303.481 169.861L282.01 194.561L281.412 179.315Z" fill="#E6E6E6"/>
<path d="M166.219 365.349L175.995 365.349L180.646 327.642L166.218 327.643L166.219 365.349Z" fill="#FFB6B6"/>
<path d="M110.809 148.267C121.584 148.267 130.32 139.531 130.32 128.755C130.32 117.98 121.584 109.244 110.809 109.244C100.033 109.244 91.2974 117.98 91.2974 128.755C91.2974 139.531 100.033 148.267 110.809 148.267Z" fill="#FFB6B6"/>
<path d="M179.185 353.734H165.342L161.813 349.003L160.858 344.546L160.035 343.75C158.92 342.68 158.199 341.264 157.989 339.732C157.779 338.2 158.092 336.642 158.878 335.311L148.845 288.502C146.218 288.271 116.584 285.621 95.985 281.975C90.7132 281.043 86.5973 278.48 83.7514 274.359C76.7584 264.232 79.754 247.847 79.785 247.683L79.8196 247.5L80.0043 247.479L128.12 242.079L128.184 242.11C129.781 242.866 167.36 260.706 173.501 266.847C176.274 269.62 182.461 286.096 183.846 303.612C184.094 306.75 183.201 309.946 182.338 313.036C181.53 315.928 180.695 318.918 180.86 321.745C181.114 326.106 181.356 330.681 181.577 335.343C181.612 336.086 182.172 336.854 182.713 337.598C183.279 338.374 183.813 339.108 183.847 339.876C184.176 347.32 179.31 353.576 179.261 353.638L179.185 353.734Z" fill="#2F2E41"/>
<path d="M182.338 180.723C181.289 180.437 180.191 180.384 179.12 180.567C178.049 180.751 177.032 181.168 176.139 181.787C175.246 182.407 174.5 183.215 173.954 184.154C173.407 185.093 173.073 186.14 172.975 187.223L156.764 192.289L157.44 202.892L180.233 195.415C182.062 195.459 183.844 194.831 185.24 193.649C186.637 192.468 187.552 190.815 187.811 189.004C188.07 187.193 187.656 185.35 186.648 183.824C185.639 182.298 184.105 181.194 182.338 180.723V180.723Z" fill="#FFB6B6"/>
<path d="M171.76 198.269L159.644 202.855L159.334 203.456C158.591 204.897 157.306 205.984 155.762 206.477C154.218 206.971 152.541 206.831 151.1 206.088L123.866 216.396C123.866 216.396 111.705 204.225 103.046 193.364L105.997 175.212C106.68 171.001 108.133 166.951 110.282 163.265C128.04 167.159 138.234 191.983 138.234 191.983L170.238 185.877L171.76 198.269Z" fill="#F05B5D"/>
<path d="M108.036 147.224C103.151 148.543 97.7662 146.789 93.9542 143.462C90.1422 140.135 87.7577 135.421 86.3838 130.551C85.3775 126.985 84.9004 123.026 86.4883 119.678C88.0762 116.33 92.3499 114.071 95.647 115.762C93.613 113.393 94.6292 109.473 97.0047 107.446C99.3802 105.419 102.642 104.837 105.749 104.52C110.258 104.059 114.915 104.007 119.205 105.468C123.496 106.928 127.394 110.122 128.737 114.451C130.108 115.089 131.653 115.255 133.128 114.922C134.604 114.589 135.927 113.775 136.891 112.61C137.14 113.949 136.94 115.332 136.323 116.546C135.706 117.76 134.707 118.737 133.479 119.326L140.052 117.194C141.183 119.587 139.202 122.549 136.669 123.316C134.135 124.082 131.401 123.244 128.997 122.137C126.593 121.03 124.263 119.63 121.652 119.198C119.041 118.767 115.974 119.606 114.766 121.961C114.133 123.194 114.1 124.639 113.733 125.975C113.366 127.312 112.435 128.698 111.054 128.807C110.18 128.876 109.326 128.411 108.455 128.506C107.376 128.624 106.55 129.602 106.262 130.649C106.045 131.716 106.043 132.815 106.254 133.883L107.924 146.647" fill="#2F2E41"/>
<path d="M83.8635 276.69C83.8598 276.69 83.8561 276.69 83.8525 276.689L83.6982 276.663L83.6536 276.513C83.0926 274.626 82.3788 272.695 81.6885 270.827C80.6718 268.24 79.8134 265.594 79.1179 262.903C78.5706 260.331 78.1911 257.725 77.9818 255.103C77.7893 253.2 77.5901 251.231 77.2515 249.293C77.1012 248.433 77.6709 247.618 78.222 246.83C78.7329 246.1 79.2155 245.41 79.1143 244.757C79.0107 244.089 78.2704 243.356 77.5545 242.647C76.7697 241.87 75.9583 241.066 75.8434 240.22C74.2793 228.679 73.5513 217.04 73.6651 205.394C73.8268 189.281 74.555 178.298 75.8294 172.749C79.2564 157.831 95.0891 155.109 97.5673 154.773C97.8313 154.07 98.2371 153.428 98.7596 152.889C99.282 152.35 99.9099 151.923 100.604 151.637C101.298 151.351 102.044 151.21 102.795 151.225C103.546 151.239 104.286 151.408 104.968 151.72L116.218 156.87C118.5 157.918 120.542 159.425 122.217 161.295C123.892 163.166 125.164 165.362 125.955 167.745L127.626 172.84L128.463 207.039L123.825 231.123L132.888 244.718C84.5822 271.24 84.0191 276.69 83.8635 276.69Z" fill="#F05B5D"/>
<path d="M160.959 361.55L164.137 361.55L176.546 356.503L183.197 361.549H183.198C186.956 361.549 190.561 363.042 193.219 365.7C195.876 368.358 197.37 371.962 197.37 375.721V376.181L160.959 376.183L160.959 361.55Z" fill="#2F2E41"/>
<path d="M186.397 205.129C185.459 204.579 184.413 204.241 183.331 204.139C182.25 204.037 181.159 204.173 180.135 204.538C179.112 204.904 178.181 205.489 177.408 206.253C176.636 207.017 176.04 207.941 175.663 208.96L158.691 209.622L156.404 217.527L180.532 218.763C182.286 219.282 184.17 219.141 185.826 218.364C187.483 217.588 188.797 216.231 189.52 214.55C190.243 212.87 190.324 210.983 189.749 209.246C189.173 207.51 187.98 206.045 186.397 205.129Z" fill="#FFB6B6"/>
<path d="M172.455 219.615L155.022 219.398L152.815 219.368L117.345 218.921C117.345 218.921 107.713 209.732 99.3262 200.271L100.502 191.768C101.648 183.424 105.788 175.78 112.15 170.259C124.162 178.286 131.128 194.174 131.128 194.174L142.809 199.4C151.029 199.768 159.039 202.114 166.158 206.239L170 208.464L172.455 219.615Z" fill="#F05B5D"/>
<path d="M300.566 369.91L294.765 371.341L292.378 366.12L291.078 372.251L275.693 376.048C274.955 376.23 274.179 376.171 273.477 375.881C272.775 375.591 272.185 375.083 271.791 374.434C271.398 373.784 271.223 373.025 271.291 372.269C271.36 371.512 271.668 370.797 272.172 370.228L282.364 358.711L280.997 353.175L294.11 350.757L300.566 369.91Z" fill="#2F2E41"/>
<path d="M239.113 371.7L233.582 369.442L234.726 363.816L230.065 368.006L215.394 362.018C214.691 361.731 214.098 361.227 213.701 360.579C213.305 359.931 213.126 359.173 213.191 358.416C213.256 357.659 213.561 356.943 214.061 356.372C214.562 355.801 215.232 355.404 215.974 355.241L230.993 351.932L233.148 346.652L245.171 352.418L239.113 371.7Z" fill="#2F2E41"/>
<path d="M219.85 217.779H215.318C210.445 217.774 205.773 215.836 202.328 212.39C198.882 208.945 196.944 204.273 196.939 199.4V199.148H238.229V199.4C238.223 204.273 236.285 208.945 232.839 212.39C229.394 215.836 224.722 217.774 219.85 217.779Z" fill="#E4E4E4"/>
<path d="M215.318 192.602C215.318 193.854 213.052 194.868 213.052 194.868C213.052 194.868 210.786 193.854 210.786 192.602C210.786 191.351 213.052 190.337 213.052 190.337C213.052 190.337 215.318 191.351 215.318 192.602Z" fill="#3F3D56"/>
<path d="M228.913 192.602C228.913 193.854 226.647 194.868 226.647 194.868C226.647 194.868 224.381 193.854 224.381 192.602C224.381 191.351 226.647 190.337 226.647 190.337C226.647 190.337 228.913 191.351 228.913 192.602Z" fill="#3F3D56"/>
<path d="M219.85 197.134C219.85 198.386 217.584 199.4 217.584 199.4C217.584 199.4 215.318 198.386 215.318 197.134C215.318 195.883 217.584 194.868 217.584 194.868C217.584 194.868 219.85 195.883 219.85 197.134Z" fill="#3F3D56"/>
<path d="M203.988 187.819C205.24 187.819 206.254 186.804 206.254 185.553C206.254 184.302 205.24 183.287 203.988 183.287C202.737 183.287 201.722 184.302 201.722 185.553C201.722 186.804 202.737 187.819 203.988 187.819Z" fill="#3F3D56"/>
<path d="M171.034 180.683L206.771 185.619C207.094 185.664 207.405 185.773 207.685 185.941C207.965 186.11 208.208 186.333 208.399 186.597C208.59 186.862 208.725 187.162 208.797 187.481C208.869 187.799 208.875 188.129 208.816 188.45C208.757 188.771 208.633 189.076 208.452 189.348C208.272 189.62 208.038 189.852 207.765 190.031C207.492 190.21 207.185 190.332 206.864 190.389C206.543 190.446 206.213 190.438 205.895 190.364L170.752 182.213C170.556 182.168 170.386 182.049 170.276 181.881C170.167 181.714 170.126 181.51 170.162 181.313C170.198 181.116 170.309 180.941 170.472 180.823C170.634 180.706 170.835 180.656 171.034 180.683Z" fill="#E4E4E4"/>
<path d="M214.461 68.0845V0H209.929V68.0845C203.737 68.6495 197.98 71.5084 193.788 76.1001C189.596 80.6918 187.271 86.6847 187.27 92.9023V99.7001H203.131C203.131 102.104 204.086 104.409 205.786 106.109C207.486 107.809 209.791 108.764 212.195 108.764C214.599 108.764 216.904 107.809 218.604 106.109C220.304 104.409 221.259 102.104 221.259 99.7001H237.12V92.9023C237.119 86.6847 234.795 80.6918 230.602 76.1001C226.41 71.5084 220.653 68.6495 214.461 68.0845Z" fill="#F0F0F0"/>
<path d="M272.808 51.0634V0H269.409V51.0634C264.765 51.4871 260.448 53.6313 257.303 57.0751C254.159 60.5189 252.416 65.0135 252.415 69.6767V74.7751H264.311C264.311 76.5779 265.027 78.307 266.302 79.5818C267.577 80.8566 269.306 81.5728 271.109 81.5728C272.912 81.5728 274.641 80.8566 275.916 79.5818C277.19 78.307 277.907 76.5779 277.907 74.7751H289.803V69.6767C289.802 65.0135 288.059 60.5189 284.914 57.0751C281.77 53.6313 277.452 51.4871 272.808 51.0634Z" fill="#F0F0F0"/>
<path d="M158.002 51.0634V0H154.603V51.0634C149.959 51.4871 145.641 53.6313 142.497 57.0751C139.353 60.5189 137.609 65.0135 137.609 69.6767V74.7751H149.505C149.505 76.5779 150.221 78.307 151.496 79.5818C152.771 80.8566 154.5 81.5728 156.303 81.5728C158.106 81.5728 159.835 80.8566 161.109 79.5818C162.384 78.307 163.1 76.5779 163.1 74.7751H174.996V69.6767C174.996 65.0135 173.252 60.5189 170.108 57.0751C166.964 53.6313 162.646 51.4871 158.002 51.0634Z" fill="#F0F0F0"/>
<path d="M362.57 120.056C359.363 116.316 357.839 111.354 355.275 107.108C352.711 102.861 348.25 99.0602 343.537 100.048C340.288 100.73 337.777 103.597 336.506 106.793C335.235 109.989 334.997 113.514 334.774 116.967C334.853 109.871 330.178 102.991 323.738 100.727C317.298 98.4627 309.591 100.988 305.544 106.689C303.778 105.053 301.473 104.121 299.066 104.07C296.658 104.02 294.316 104.854 292.483 106.415C288.863 109.65 288.062 115.808 290.724 119.934C293.386 124.061 299.151 125.598 303.382 123.309L304.877 124.685C304.036 127.63 305.668 131.108 308.413 132.216C310.638 133.115 313.78 132.965 314.612 135.301C315.194 136.933 314.107 138.674 312.95 139.928C311.793 141.182 310.419 142.477 310.28 144.212C310.07 146.83 312.776 148.664 315.235 149.217C321.165 150.548 327.746 147.802 331.164 142.569C331.229 142.468 331.301 142.367 331.378 142.266C333.296 139.813 334.694 136.996 335.486 133.985C336.278 130.974 336.448 127.834 335.985 124.755C335.793 123.545 335.986 122.646 336.82 122.359C340.425 121.121 350.524 123.72 353.581 126.068C356.637 128.417 359.085 131.525 362.029 134.026C364.973 136.526 368.725 138.454 372.463 137.774C375.457 137.228 378.004 135.055 379.717 132.433C381.43 129.811 382.416 126.755 383.299 123.718C376.679 127.543 367.618 125.942 362.57 120.056Z" fill="#2F2E41"/>
</g>
<defs>
<clipPath id="clip0_57_29">
<rect width="450" height="377.415" fill="white"/>
</clipPath>
</defs>
</svg>
