<svg width="586" height="300" viewBox="0 0 586 300" fill="none" xmlns="http://www.w3.org/2000/svg">
<g clip-path="url(#clip0_57_140)">
<path d="M291.57 74.036L291.555 74.1383L291.513 74.4338L287.209 105.321L260.853 114.991L260.44 114.794L245.685 107.786L238.055 78.5107L237.532 76.501L237.691 76.4399L270.334 64.1762L291.551 74.0243L291.57 74.036Z" fill="#F05B5D"/>
<path d="M260.44 114.794L245.685 107.786L237.532 76.501L237.691 76.4399L258.958 85.4121L260.44 114.794Z" fill="#F05B5D"/>
<path opacity="0.2" d="M260.81 114.437L249.586 92.9275L251.028 86.8297L244.239 78.835L243.661 79.3261L250.202 87.0282L245.316 107.699L246.054 107.874L249.32 94.056L260.138 114.787L260.81 114.437Z" fill="black"/>
<path d="M291.57 74.415L291.513 74.4338L258.958 85.7916L238.055 78.5107L237.532 76.501L237.691 76.4399L270.334 64.1762L291.551 74.0243L291.555 74.1383L291.57 74.415Z" fill="#3F3D56"/>
<path d="M259.526 86.3603L252.89 81.2412L254.407 75.5529L273.367 68.7266L286.261 69.485L291.381 73.8463L291.759 74.9836L259.526 86.3603Z" fill="#F05B5D"/>
<path d="M237.911 76.501L252.89 75.9318L261.004 73.1778L273.656 68.7266L276.022 65.3141L270.118 64.2573L237.911 76.501Z" fill="#F05B5D"/>
<path d="M267.754 70.3986L259.944 73.1395L260.195 73.855L268.005 71.1141L267.754 70.3986Z" fill="#CCCCCC"/>
<path d="M164.88 26.0502L161.219 44.3571L178.306 57.1725L186.239 33.3729L164.88 26.0502Z" fill="#9F616A"/>
<path d="M178.611 42.8318C187.711 42.8318 195.087 35.455 195.087 26.3552C195.087 17.2555 187.711 9.87865 178.611 9.87865C169.511 9.87865 162.134 17.2555 162.134 26.3552C162.134 35.455 169.511 42.8318 178.611 42.8318Z" fill="#9F616A"/>
<path d="M142.912 151.196C142.987 156.511 166.139 215.673 162.925 223.377C157.857 228.557 146.958 256.126 142.301 263.481C141.691 263.48 138.64 272.634 138.64 272.634C138.64 272.634 145.963 284.229 153.896 279.347C163.871 255.886 188.853 242.8 189.295 212.222C190.5 221.882 194.06 283.885 194.06 283.885C194.06 283.885 193.377 284.175 208.746 285.648C211.132 249.661 220.883 188.438 199.053 149.975C192.341 146.924 142.912 151.196 142.912 151.196Z" fill="#2F2E41"/>
<path d="M194.059 282.678C193.345 284.05 188.229 296.714 192.885 297.984C198.254 299.449 203.459 297.397 203.459 297.397C203.459 297.397 212.858 300.334 218.611 296.601C221.295 293.916 220.685 291.476 219.404 289.706C218.753 288.834 217.919 288.115 216.962 287.599C216.004 287.083 214.945 286.782 213.859 286.717C210.94 286.509 210.013 285.968 209.679 284.631C209.191 282.678 194.059 282.678 194.059 282.678Z" fill="#2F2E41"/>
<path d="M143.847 271.619C143.847 271.619 130.731 275.761 133.492 280.593C135.286 283.588 137.904 286.003 141.034 287.548C141.034 287.548 143.77 298.825 151.363 298.825C155.16 298.825 156.454 296.668 156.799 294.511C156.955 293.434 156.874 292.336 156.562 291.294C156.25 290.252 155.714 289.29 154.992 288.477C153.075 286.265 152.802 285.227 153.511 284.045C154.547 282.319 143.847 271.619 143.847 271.619Z" fill="#2F2E41"/>
<path d="M202.108 152.982C202.108 152.982 199.664 157.864 189.901 156.031C180.137 154.204 141.694 156.031 141.694 156.031C141.694 156.031 143.826 112.401 138.945 86.1589C134.063 59.9172 153.284 44.9664 153.284 44.9664L159.388 38.8627C165.492 38.2576 178.381 57.1972 178.381 57.1972C182.622 57.908 186.581 75.9371 189.959 92.9969C190.159 93.972 190.347 94.9355 190.535 95.8989C192.092 103.853 194.259 112.706 195.558 120.654C195.652 121.218 195.74 121.776 195.822 122.334C197.365 132.656 199.464 142.887 202.108 152.982Z" fill="#E6E6E6"/>
<path d="M159.335 16.0959C159.335 16.0959 156.255 9.31867 164.264 6.23811C164.264 6.23811 171.042 -4.8519 184.596 2.54145C184.596 2.54145 193.838 6.23811 193.838 16.0959C193.838 25.9537 196.918 27.802 196.918 27.802C196.918 27.802 192.331 23.0957 191.098 19.399C189.866 15.7024 180.283 14.8637 176.587 18.5604C172.89 22.257 163.648 21.6409 163.648 21.6409L164.264 35.1954C164.264 35.1954 161.184 27.1859 159.952 27.1859C158.719 27.1859 157.487 16.0959 159.335 16.0959Z" fill="#2F2E41"/>
<path opacity="0.2" d="M195.558 120.654C181.001 112.741 157.42 95.3878 149.812 86.0002C139.785 73.6343 150.723 64.235 150.723 64.235C163.124 56.41 177.952 83.2568 177.952 83.2568L189.959 92.9969C190.159 93.972 190.347 94.9355 190.535 95.8989C192.092 103.853 194.259 112.706 195.558 120.654Z" fill="black"/>
<path d="M239.014 111.535C239.014 111.535 260.656 120.321 264.218 110.445C267.78 100.568 247.131 100.738 247.131 100.738L239.025 101.887L239.014 111.535Z" fill="#9F616A"/>
<path d="M147.949 60.216C147.949 60.216 137.016 69.6208 147.037 81.9826C157.057 94.3445 203.11 120.757 203.11 120.757L233.108 112.648L241.597 114.201L243.197 98.2634L230.691 99.4842L198.944 92.7245L178.7 76.2985C178.7 76.2985 160.347 52.3953 147.949 60.216Z" fill="#E6E6E6"/>
<path opacity="0.2" d="M187.778 173.512L189.691 218.207L184.841 173.512H187.778Z" fill="black"/>
<path d="M394.29 141.541L376.926 145.564C375.583 145.876 374.171 145.651 372.991 144.938C371.811 144.225 370.955 143.08 370.606 141.746C370.403 140.972 370.379 140.163 370.533 139.379C370.688 138.594 371.018 137.855 371.5 137.216C371.981 136.578 372.6 136.056 373.312 135.691C374.023 135.326 374.808 135.127 375.607 135.108L392.38 134.718L394.29 141.541Z" fill="#FFB9B9"/>
<path d="M392.447 144.089L388.59 132.52L411.71 124.623L405.574 70.5853C416.622 72.594 421.88 81.2816 421.387 92.4998L424.378 129.374L392.447 144.089Z" fill="#3F3D56"/>
<path d="M408.421 58.6715H446.193V39.8873C446.207 34.8142 444.219 29.9404 440.661 26.3238C438.924 24.542 436.846 23.1267 434.552 22.1615C432.259 21.1963 429.794 20.7009 427.306 20.7044C422.336 20.7136 417.569 22.6785 414.036 26.1743C410.503 29.6701 408.488 34.4159 408.427 39.3856C408.424 39.5576 408.421 39.721 408.421 39.8873L408.421 58.6715Z" fill="#2F2E41"/>
<path d="M461.987 279.412L449.912 278.027L435.463 180.442L405.574 278.423L392.51 278.819L407.355 158.273L405.178 130.759L442.193 119.081C468.409 137.382 467.867 202.022 461.987 279.412Z" fill="#2F2E41"/>
<path d="M423.982 54.9481C431.853 54.9481 438.234 48.5673 438.234 40.6964C438.234 32.8254 431.853 26.4447 423.982 26.4447C416.111 26.4447 409.731 32.8254 409.731 40.6964C409.731 48.5673 416.111 54.9481 423.982 54.9481Z" fill="#FFB9B9"/>
<path d="M438.234 66.4286L414.085 72.7627C418.154 64.9383 419.456 57.6342 417.252 50.9893L434.275 48.2181C433.181 54.572 434.601 61.1024 438.234 66.4286Z" fill="#FFB9B9"/>
<path d="M446.35 124.425C432.805 133.039 417.027 142.934 405.376 133.332L399.834 106.413C395.429 102.489 397.382 90.3819 403.337 73.1247C403.715 72.0292 404.338 71.0343 405.158 70.2153C405.978 69.3963 406.973 68.7747 408.069 68.3977L417.252 65.241C421.322 68.6635 427.994 66.6222 435.859 62.0739L444.964 64.4492L448.923 94.1402C443.208 102.702 444.206 114.103 446.35 124.425Z" fill="#3F3D56"/>
<path d="M435.066 135.999L417.702 140.022C416.359 140.333 414.947 140.109 413.767 139.396C412.587 138.683 411.731 137.538 411.382 136.204C411.179 135.43 411.154 134.621 411.309 133.836C411.464 133.052 411.794 132.313 412.275 131.674C412.756 131.035 413.376 130.514 414.087 130.149C414.799 129.784 415.584 129.584 416.383 129.566L433.156 129.176L435.066 135.999Z" fill="#FFB9B9"/>
<path d="M459.888 298.069C457.86 298.995 456.162 293.259 454.451 294.94C449.666 299.642 438.188 298.588 438.188 298.588C437.803 298.464 437.447 298.263 437.141 297.997C436.836 297.732 436.587 297.407 436.411 297.042C436.235 296.678 436.134 296.282 436.116 295.877C436.097 295.473 436.161 295.069 436.303 294.69C436.473 294.236 436.751 293.831 437.112 293.508C437.474 293.186 437.908 292.956 438.378 292.838L443.467 291.566L451.456 277.515L460.164 276.413L460.384 276.773C462.067 279.486 463.152 282.527 463.567 285.693C463.982 288.858 463.717 292.076 462.789 295.131C462.065 297.451 461.08 297.525 459.888 298.069Z" fill="#2F2E41"/>
<path d="M402.485 298.069C400.458 298.995 398.759 293.259 397.048 294.94C392.264 299.642 380.785 298.588 380.785 298.588C380.4 298.464 380.044 298.263 379.738 297.997C379.433 297.732 379.185 297.407 379.008 297.042C378.832 296.678 378.732 296.282 378.713 295.877C378.694 295.473 378.758 295.069 378.9 294.69C379.07 294.236 379.348 293.831 379.71 293.508C380.071 293.186 380.505 292.956 380.975 292.838L386.064 291.566L394.054 277.515L402.761 276.413L402.981 276.773C404.664 279.486 405.75 282.527 406.164 285.693C406.579 288.858 406.314 292.076 405.387 295.131C404.663 297.451 403.677 297.525 402.485 298.069Z" fill="#2F2E41"/>
<path d="M440.69 28.8092L437.1 40.2292L406.067 39.6776C406.173 35.6821 407.525 31.8194 409.933 28.6293C412.341 25.4391 415.685 23.0808 419.499 21.8837C423.312 20.6866 427.404 20.7105 431.203 21.9521C435.003 23.1938 438.319 25.5911 440.69 28.8092H440.69Z" fill="#2F2E41"/>
<path d="M433.223 138.547L429.366 126.978L452.486 119.081L443.74 63.872C449.082 64.8434 453.892 67.717 457.279 71.9612C460.666 76.2053 462.401 81.5327 462.163 86.9574L465.154 123.831L433.223 138.547Z" fill="#3F3D56"/>
<path d="M378.002 107.357L353.956 112.528L349.043 88.8694L358.093 76.7166L366.237 75.1652L375.287 84.3442L378.002 107.357Z" fill="#CCCCCC"/>
<path d="M366.884 108.388H352.403L350.429 98.6423L348.267 87.9623L351.499 83.3097L357.708 85.2483L364.428 94.5595L366.114 104.047L366.232 104.722L366.884 108.388Z" fill="#E6E6E6"/>
<path d="M391.189 102.702L374.512 104.641L377.485 83.4395L384.208 77.3628L390.025 78.785L393.904 87.7056L391.189 102.702Z" fill="#CCCCCC"/>
<path d="M393.384 90.1594L391.833 98.6952L386.793 127.78L367.401 133.99L366.731 133.625L356.28 127.909L350.4 98.6305L350.429 98.6423L365.979 104.899L366.114 104.047L366.208 103.43L367.401 95.8519L372.7 90.1594L390.412 85.8945L393.384 90.1594Z" fill="#E6E6E6"/>
<path d="M381.105 89.257C383.39 89.257 385.242 87.4048 385.242 85.1199C385.242 82.8351 383.39 80.9829 381.105 80.9829C378.82 80.9829 376.968 82.8351 376.968 85.1199C376.968 87.4048 378.82 89.257 381.105 89.257Z" fill="#E6E6E6"/>
<path d="M370.934 87.2551L361.496 88.9357L361.541 89.1902L370.979 87.5096L370.934 87.2551Z" fill="white"/>
<path d="M366.731 133.625L356.28 127.909L350.4 98.6305L350.429 98.6423L348.267 87.9623L351.499 83.3097L357.708 85.2483L364.428 94.5595L366.114 104.047L366.208 103.43L366.232 104.722L366.297 108.388L366.731 133.625Z" fill="#F2F2F2"/>
<path d="M356.408 127.946L356.158 127.879L361.313 108.548L355.41 100.766L355.616 100.61L361.595 108.492L356.408 127.946Z" fill="#CCCCCC"/>
<path d="M359.318 116.91L359.085 117.022L367.285 134.045L367.517 133.932L359.318 116.91Z" fill="#CCCCCC"/>
<path opacity="0.2" d="M392.367 96.9236L391.396 102.288L391.347 102.293L387 127.368L367.608 133.574L367.492 133.629L367.414 133.468L356.49 127.498L356.364 127.464L356.431 127.211L350.607 98.2151L350.637 98.2268L349.992 95.0438L350.474 94.3496L351.965 92.2035L358.17 94.1427L364.893 103.451L364.991 104.004L365.697 107.976L365.98 109.571L366.579 112.942L367.148 109.32L367.352 108.017L367.867 104.744L373.167 99.0555L375.524 98.4879L377.164 98.0923L379.422 97.5493C378.722 97.1238 378.164 96.5001 377.818 95.7571C377.473 95.0141 377.356 94.1854 377.483 93.3759C377.609 92.5665 377.973 91.8128 378.528 91.2103C379.083 90.6079 379.805 90.1839 380.601 89.992C381.398 89.8001 382.233 89.849 383.002 90.1324C383.771 90.4159 384.438 90.9212 384.919 91.5843C385.4 92.2474 385.673 93.0384 385.704 93.8571C385.736 94.6757 385.523 95.4852 385.093 96.1828L390.879 94.7892L392.305 96.8357L392.367 96.9236Z" fill="black"/>
<path d="M367.349 118.577H352.87L348.733 98.1506L351.965 93.4961L358.17 95.4353L364.893 104.744L367.349 118.577Z" fill="#E6E6E6"/>
<path d="M387.259 137.97L367.866 144.175L356.748 138.099L350.866 108.816L366.445 115.086L367.866 106.037L373.167 100.348L390.879 96.0821L393.852 100.348L392.301 108.881L387.259 137.97Z" fill="#E6E6E6"/>
<path d="M381.57 99.4433C383.855 99.4433 385.707 97.5911 385.707 95.3063C385.707 93.0215 383.855 91.1693 381.57 91.1693C379.286 91.1693 377.433 93.0215 377.433 95.3063C377.433 97.5911 379.286 99.4433 381.57 99.4433Z" fill="#E6E6E6"/>
<path d="M367.207 143.612L356.756 137.896L350.876 108.617L350.905 108.629L348.743 97.9491L351.974 93.2964L358.184 95.235L364.904 104.546L366.59 114.034L366.684 113.417L366.708 114.709L366.772 118.375L367.207 143.612Z" fill="#F2F2F2"/>
<path d="M356.873 138.132L356.624 138.065L361.778 118.734L355.875 110.952L356.081 110.796L362.061 118.679L356.873 138.132Z" fill="#CCCCCC"/>
<path d="M359.784 127.096L359.551 127.208L367.75 144.231L367.983 144.119L359.784 127.096Z" fill="#CCCCCC"/>
<path d="M529.566 273.223L505.52 278.394L500.607 254.735L509.657 242.583L517.801 241.031L526.851 250.21L529.566 273.223Z" fill="#CCCCCC"/>
<path d="M518.448 274.254H503.967L501.993 264.508L499.831 253.828L503.062 249.176L509.272 251.114L515.992 260.426L517.678 269.913L517.796 270.589L518.448 274.254Z" fill="#E6E6E6"/>
<path d="M542.753 268.568L526.076 270.508L529.049 249.306L535.772 243.23L541.589 244.651L545.468 253.572L542.753 268.568Z" fill="#CCCCCC"/>
<path d="M544.948 256.026L543.397 264.561L538.357 293.646L518.965 299.856L518.295 299.492L507.844 293.776L501.964 264.497L501.993 264.508L517.543 270.765L517.678 269.913L517.772 269.296L518.965 261.718L524.264 256.026L541.976 251.761L544.948 256.026Z" fill="#E6E6E6"/>
<path d="M532.669 255.123C534.954 255.123 536.806 253.271 536.806 250.986C536.806 248.701 534.954 246.849 532.669 246.849C530.384 246.849 528.532 248.701 528.532 250.986C528.532 253.271 530.384 255.123 532.669 255.123Z" fill="#E6E6E6"/>
<path d="M522.498 253.121L513.06 254.802L513.105 255.057L522.543 253.376L522.498 253.121Z" fill="white"/>
<path d="M518.295 299.491L507.844 293.776L501.964 264.497L501.993 264.508L499.831 253.828L503.062 249.176L509.272 251.114L515.992 260.426L517.678 269.913L517.772 269.296L517.796 270.589L517.861 274.254L518.295 299.491Z" fill="#F2F2F2"/>
<path d="M507.972 293.812L507.722 293.746L512.876 274.414L506.974 266.632L507.18 266.476L513.159 274.358L507.972 293.812Z" fill="#CCCCCC"/>
<path d="M510.882 282.776L510.649 282.888L518.848 299.911L519.081 299.799L510.882 282.776Z" fill="#CCCCCC"/>
<path d="M577.082 297.6H561.221L558.871 267.052H579.432L577.082 297.6Z" fill="#E6E6E6"/>
<path d="M579.725 279.389H558.577V284.089H579.725V279.389Z" fill="#F2F2F2"/>
<path d="M585.16 269.245L581.778 268.249L581.735 267.012L566.708 262.585L566 263.601L562.619 262.606L560.496 265.655L585.291 272.958L585.16 269.245Z" fill="#CCCCCC"/>
<path d="M87.7226 259.044L87.7074 259.147L87.6656 259.443L83.3613 290.33L57.0057 300L56.5927 299.803L41.8369 292.795L34.207 263.519L33.6842 261.509L33.8434 261.449L66.4861 249.185L87.7032 259.033L87.7226 259.044Z" fill="#F05B5D"/>
<path d="M56.5927 299.803L41.8369 292.795L33.6842 261.509L33.8434 261.449L55.1099 270.421L56.5927 299.803Z" fill="#F05B5D"/>
<path opacity="0.2" d="M56.9628 299.445L45.7389 277.936L47.1805 271.839L40.3912 263.843L39.8132 264.335L46.3539 272.037L41.468 292.708L42.2065 292.882L45.4721 279.065L56.2902 299.796L56.9628 299.445Z" fill="black"/>
<path d="M87.7226 259.424L87.6656 259.443L55.1099 270.8L34.207 263.519L33.6842 261.509L33.8434 261.449L66.4861 249.185L87.7032 259.033L87.7074 259.147L87.7226 259.424Z" fill="#3F3D56"/>
<path d="M55.6786 271.369L49.0421 266.25L50.5589 260.561L69.5197 253.736L82.4132 254.494L87.5329 258.855L87.9118 259.993L55.6786 271.369Z" fill="#F05B5D"/>
<path d="M34.0631 261.509L49.0421 260.941L57.1566 258.186L69.8081 253.736L72.1744 250.323L66.2704 249.266L34.0631 261.509Z" fill="#F05B5D"/>
<path d="M63.9065 255.407L56.0963 258.148L56.3473 258.864L64.1576 256.123L63.9065 255.407Z" fill="#CCCCCC"/>
<path d="M21.1484 298.302H5.28708L2.93726 267.755H23.4983L21.1484 298.302Z" fill="#F05B5D"/>
<path d="M23.792 280.091H2.64355V284.791H23.792V280.091Z" fill="#E6E6E6"/>
<path d="M24.6732 265.992H21.1485L20.7566 264.817H5.09149L4.69966 265.992H1.17491L0 269.517H25.8481L24.6732 265.992Z" fill="#3F3D56"/>
<path d="M474.864 297.942H118.809V299.117H474.864V297.942Z" fill="#3F3D56"/>
</g>
<defs>
<clipPath id="clip0_57_140">
<rect width="585.291" height="300" fill="white"/>
</clipPath>
</defs>
</svg>
